<?xml version="1.0" encoding="UTF-8" standalone="no" ?>
<!DOCTYPE svg PUBLIC "-//W3C//DTD SVG 1.1//EN" "http://www.w3.org/Graphics/SVG/1.1/DTD/svg11.dtd">
<svg xmlns="http://www.w3.org/2000/svg" xmlns:xlink="http://www.w3.org/1999/xlink" version="1.1" width="1080" height="1080" viewBox="0 0 1080 1080" xml:space="preserve">
<desc>Created with Fabric.js 5.2.4</desc>
<defs>
</defs>
<g transform="matrix(1 0 0 1 540 540)" id="5b89b52e-705e-4f96-88a8-3eb8c4e1781e"  >
<rect style="stroke: none; stroke-width: 1; stroke-dasharray: none; stroke-linecap: butt; stroke-dashoffset: 0; stroke-linejoin: miter; stroke-miterlimit: 4; fill: rgb(255,255,255); fill-rule: nonzero; opacity: 1; visibility: hidden;" vector-effect="non-scaling-stroke"  x="-540" y="-540" rx="0" ry="0" width="1080" height="1080" />
</g>
<g transform="matrix(1 0 0 1 540 540)" id="5e355e62-23b3-410e-86d0-132dfc951efc"  >
</g>
<g transform="matrix(1 0 0 1 540 540)"  >
<g style="" vector-effect="non-scaling-stroke"   >
		<g transform="matrix(1 0 0 1 0 0)"  >
<rect style="stroke: none; stroke-width: 1; stroke-dasharray: none; stroke-linecap: butt; stroke-dashoffset: 0; stroke-linejoin: miter; stroke-miterlimit: 4; fill: rgb(0,0,0); fill-rule: nonzero; opacity: 1;" vector-effect="non-scaling-stroke"  x="-20" y="-20" rx="20" ry="20" width="40" height="40" />
</g>
		<g transform="matrix(1 0 0 1 0.5 -0.26)"  >
<path style="stroke: none; stroke-width: 1; stroke-dasharray: none; stroke-linecap: butt; stroke-dashoffset: 0; stroke-linejoin: miter; stroke-miterlimit: 4; fill: rgb(0,0,0); fill-rule: nonzero; opacity: 1;" vector-effect="non-scaling-stroke"  transform=" translate(-20.5, -19.74)" d="M 25.5529 25.0373 C 25.7301 25.3099 25.9413 25.5484 26.1867 25.7529 C 26.4456 25.9437 26.6501 26.1004 26.8 26.2231 C 26.9499 26.3321 27.0249 26.4548 27.0249 26.5911 L 27.0249 26.6524 C 27.0249 26.8841 26.8681 27 26.5547 27 L 22.2818 27 C 21.9819 27 21.832 26.8841 21.832 26.6524 L 21.832 26.5911 C 21.832 26.4684 21.907 26.3321 22.0569 26.1822 C 22.2204 26.0187 22.3295 25.8756 22.384 25.7529 C 22.4521 25.6166 22.4181 25.3781 22.2818 25.0373 L 20.1351 21.48 L 17.8862 21.5209 L 17.8862 25.0373 C 17.8862 25.3508 18.0293 25.6575 18.3156 25.9573 C 18.6154 26.2436 18.7653 26.4548 18.7653 26.5911 L 18.7653 26.6524 C 18.7653 26.8841 18.6018 27 18.2747 27 L 14.4311 27 C 14.1313 27 13.9813 26.8841 13.9813 26.6524 L 13.9813 26.5911 C 13.9813 26.4548 14.1108 26.2436 14.3698 25.9573 C 14.6287 25.6575 14.7582 25.3508 14.7582 25.0373 L 14.7582 14.4471 C 14.7582 14.1336 14.6287 13.8338 14.3698 13.5476 C 14.1108 13.2477 13.9813 13.0296 13.9813 12.8933 L 13.9813 12.8116 C 13.9813 12.5935 14.1313 12.4844 14.4311 12.4844 L 19.4809 12.4844 C 21.3754 12.4844 22.8747 12.8729 23.9787 13.6498 C 25.0963 14.4267 25.6619 15.5647 25.6756 17.064 C 25.6756 17.8954 25.4302 18.6655 24.9396 19.3742 C 24.4625 20.0693 23.7742 20.6077 22.8747 20.9893 L 25.5529 25.0373 Z M 19.0311 20.2738 L 19.9102 20.2738 C 20.6871 20.2738 21.3073 20.0353 21.7707 19.5582 C 22.2477 19.0676 22.4862 18.352 22.4862 17.4116 C 22.4862 16.2939 22.1591 15.4012 21.5049 14.7333 C 20.8643 14.0655 20.1215 13.7316 19.2764 13.7316 L 18.5813 13.7316 C 18.1179 13.7316 17.8862 14.0382 17.8862 14.6516 L 17.8862 18.904 C 17.8862 19.3947 17.9748 19.749 18.152 19.9671 C 18.3428 20.1716 18.6359 20.2738 19.0311 20.2738 Z" stroke-linecap="round" />
</g>
</g>
</g>
<g transform="matrix(1 0 0 1 538 541)" style="" id="6960c3c8-4a5f-464b-bd40-b3cf93cb9655"  >
		<text xml:space="preserve" font-family="Lato" font-size="34" font-style="normal" font-weight="100" style="stroke: none; stroke-width: 1; stroke-dasharray: none; stroke-linecap: butt; stroke-dashoffset: 0; stroke-linejoin: miter; stroke-miterlimit: 4; fill: rgb(136,120,117); fill-rule: nonzero; opacity: 1; white-space: pre;" ><tspan x="-3.57" y="10.68" >J</tspan><tspan x="-11.81" y="10.68" >J</tspan></text>
</g>
</svg>