<?xml version="1.0" standalone="no"?>
<!DOCTYPE svg PUBLIC "-//W3C//DTD SVG 20010904//EN"
 "http://www.w3.org/TR/2001/REC-SVG-20010904/DTD/svg10.dtd">
<svg version="1.0" xmlns="http://www.w3.org/2000/svg"
 width="500.000000pt" height="500.000000pt" viewBox="0 0 500.000000 500.000000"
 preserveAspectRatio="xMidYMid meet">

<g transform="translate(0.000000,500.000000) scale(0.100000,-0.100000)"
fill="#000000" stroke="none">
<path d="M2375 4774 c-430 -44 -715 -134 -1032 -325 -701 -423 -1120 -1201
-1090 -2024 15 -410 128 -789 334 -1123 327 -531 854 -904 1449 -1026 192 -40
279 -49 459 -50 418 0 798 105 1157 322 793 478 1212 1385 1069 2314 -43 284
-152 579 -306 833 -393 648 -1093 1055 -1852 1078 -82 3 -166 3 -188 1z m1455
-964 c0 -34 -199 -88 -272 -73 -23 5 -37 -5 -107 -75 -93 -93 -209 -263 -390
-574 -118 -203 -147 -251 -208 -347 l-33 -51 31 0 c108 0 274 64 346 133 36
34 58 30 27 -4 -63 -72 -215 -136 -344 -146 l-75 -5 -65 -63 c-90 -85 -132
-116 -225 -163 -173 -86 -366 -122 -506 -93 -88 18 -173 63 -203 107 -84 124
33 235 284 270 121 17 248 12 518 -20 l103 -13 27 32 c27 31 82 108 125 175
13 19 67 112 121 205 54 94 117 202 139 240 80 136 163 251 234 324 40 41 70
77 67 80 -3 3 -90 6 -192 6 -169 0 -193 -2 -251 -23 -34 -13 -77 -33 -93 -45
-40 -30 -78 -97 -80 -141 -1 -43 -18 -27 -18 17 0 61 49 131 118 166 105 53
124 55 492 57 291 1 351 3 385 17 22 8 41 16 43 16 1 1 2 -3 2 -9z m-30 -1230
c-36 -28 -82 -40 -185 -47 -83 -5 -93 -8 -132 -39 -49 -40 -115 -122 -206
-256 -60 -89 -187 -294 -187 -303 0 -2 -24 -43 -53 -92 -30 -48 -79 -131 -110
-183 -30 -52 -70 -115 -87 -139 l-32 -44 73 5 c116 8 250 65 337 141 12 12 22
15 22 9 0 -16 -90 -80 -154 -110 -73 -34 -130 -49 -217 -57 -75 -6 -77 -7
-121 -53 -91 -96 -178 -154 -318 -212 -100 -41 -193 -60 -299 -60 -115 0 -190
16 -253 54 -68 41 -93 76 -93 131 0 38 6 50 39 84 109 111 353 143 720 92
l169 -23 23 28 c57 68 190 277 302 474 163 288 231 388 332 492 l66 67 -65 7
c-36 5 -113 8 -171 7 -231 -2 -341 -52 -389 -176 -15 -39 -20 -45 -20 -27 -1
41 41 112 85 146 25 19 76 41 125 55 81 23 96 24 414 24 231 0 337 4 355 12
41 19 58 15 30 -7z"/>
<path d="M2130 2709 c-191 -14 -330 -91 -330 -183 0 -43 71 -109 140 -131 81
-25 229 -30 320 -11 86 18 199 70 262 121 59 48 169 157 164 162 -8 8 -281 41
-371 45 -49 2 -133 1 -185 -3z"/>
<path d="M2051 1495 c-113 -25 -161 -46 -207 -89 -37 -36 -44 -49 -44 -80 0
-55 32 -93 109 -130 65 -30 68 -31 216 -31 140 1 155 2 220 28 94 38 195 106
285 196 l75 74 -180 23 c-203 26 -379 29 -474 9z"/>
</g>
</svg>
